<?xml version="1.0" ?><svg data-name="Layer 1" id="Layer_1" viewBox="0 0 512 512" xmlns="http://www.w3.org/2000/svg"><path d="M433.14,236.14H78.86V150.52c0-9.78,11.87-17.74,26.47-17.74H406.67c14.6,0,26.47,8,26.47,17.74v85.62ZM82.65,232.36h346.7V193.12h0l0-2.3v-40.3c0-7.7-10.17-14-22.68-14H105.33c-12.51,0-22.68,6.26-22.68,14v40.67l0,1.93h0Z"/><path d="M407.89,235.83H286.65l-.39-1.38a17.23,17.23,0,0,1-.64-4.59V197.71c0-11.9,12.64-21.58,28.17-21.58h67c15.53,0,28.17,9.68,28.17,21.58v32.15a16.84,16.84,0,0,1-.64,4.59ZM289.6,232.05H405a13.5,13.5,0,0,0,.19-2.19V197.71c0-9.81-10.94-17.8-24.39-17.8h-67c-13.44,0-24.38,8-24.38,17.8v32.15A12.46,12.46,0,0,0,289.6,232.05Z"/><path d="M481.3,376.68H30.7V290.84H481.3ZM34.49,372.9h443V294.63h-443Z"/><path d="M73.31,394.73H48.67V372.9H73.31Zm-20.86-3.79H69.53V376.68H52.45Z"/><path d="M462.17,395.39H437.52V373.56h24.65Zm-20.86-3.79h17.08V377.34H441.31Z"/><path d="M447.65,236.14H64.35V136.93c0-11.2,12.79-20.32,28.5-20.32h326.3c15.71,0,28.5,9.12,28.5,20.32v46.84a.92.92,0,0,1,0,.16v52.21ZM68.14,232.36H443.86V186.13h0v-1.92c0-.1,0-.19,0-.28v-47c0-9.12-11.08-16.53-24.71-16.53H92.85c-13.63,0-24.71,7.41-24.71,16.53V184.2l0,1.93h-.06Z"/><path d="M232,235.39H110.76l-.39-1.38a16.36,16.36,0,0,1-.64-4.53V197.84c0-11.73,12.63-21.27,28.17-21.27h67c15.53,0,28.16,9.54,28.16,21.27v31.64a16.36,16.36,0,0,1-.64,4.53ZM113.7,231.6H229.06a12.55,12.55,0,0,0,.18-2.12V197.84c0-9.64-10.94-17.49-24.38-17.49h-67c-13.45,0-24.39,7.85-24.39,17.49v31.64A11.61,11.61,0,0,0,113.7,231.6Z"/><path d="M480.77,294.63H31.23L31,293a26.91,26.91,0,0,1-.3-3.8V259.68a27,27,0,0,1,27-27H454.31a27,27,0,0,1,27,27V289.2a26.91,26.91,0,0,1-.3,3.8ZM34.56,290.84H477.44c.05-.57.07-1.12.07-1.64V259.68a23.22,23.22,0,0,0-23.2-23.2H57.69a23.22,23.22,0,0,0-23.2,23.2V289.2C34.49,289.72,34.51,290.27,34.56,290.84Z"/></svg>