<svg viewBox="0 0 64 64" xml:space="preserve" xmlns="http://www.w3.org/2000/svg" fill-rule="evenodd" clip-rule="evenodd" stroke-linejoin="round" stroke-miterlimit="2"><path d="M40.069 9v30.562A8.545 8.545 0 0 0 38.596 43H6a.997.997 0 0 1-1-1V25.01a1 1 0 0 0-2 0V42c0 .796.316 1.559.879 2.121A2.996 2.996 0 0 0 6 45h32.462A8.526 8.526 0 0 0 40 49.486V60a1 1 0 0 0 1.555.832L47 57.202l5.445 3.63A1 1 0 0 0 54 60V49.555A8.53 8.53 0 0 0 55.587 45H58a3 3 0 0 0 3-3V10a3 3 0 0 0-3-3H33.814a1 1 0 0 0 0 2h6.255Zm6.955 29a6.576 6.576 0 0 1 6.573 6.573 6.576 6.576 0 0 1-6.573 6.573 6.576 6.576 0 0 1-6.572-6.573A6.576 6.576 0 0 1 47.024 38Zm.874 1.398a1 1 0 0 0-1.748 0l-1.216 2.187-2.456.481a1 1 0 0 0-.541 1.663l1.705 1.833-.302 2.485a1.002 1.002 0 0 0 1.414 1.027l2.27-1.055 2.27 1.055a1 1 0 0 0 1.414-1.027l-.301-2.485 1.704-1.833a.999.999 0 0 0-.54-1.663l-2.456-.481-1.217-2.187ZM53.98 9v30.562A8.539 8.539 0 0 1 55.453 43H58a1 1 0 0 0 1-1V10a1 1 0 0 0-1-1h-4.02ZM17.759 25.685a13.369 13.369 0 0 0-5.275 3.257 13.424 13.424 0 0 0-3.927 10.101 1 1 0 0 0 .999.957h24.888a1 1 0 0 0 .999-.957 13.424 13.424 0 0 0-3.927-10.101 13.369 13.369 0 0 0-5.275-3.257A7.494 7.494 0 0 0 29.5 19.5c0-4.139-3.361-7.5-7.5-7.5a7.504 7.504 0 0 0-7.5 7.5 7.494 7.494 0 0 0 3.259 6.185ZM22 37.394l-2.054-2.583L22 29.002l2.054 5.809L22 37.394ZM30.07 7H6c-.796 0-1.559.316-2.121.879A2.996 2.996 0 0 0 3 10v11.089a1 1 0 0 0 2 0V10a.997.997 0 0 1 1-1h24.07a1 1 0 0 0 0-2Z" fill="#01234e" class="fill-000000"></path></svg>