<svg viewBox="0 0 512 512" xml:space="preserve" xmlns="http://www.w3.org/2000/svg" enable-background="new 0 0 512 512"><path d="M256 43.5C138.64 43.5 43.5 138.64 43.5 256S138.64 468.5 256 468.5 468.5 373.36 468.5 256 373.36 43.5 256 43.5zm122.81 179.42L249.88 351.86c-7.95 7.95-18.52 12.33-29.76 12.33s-21.81-4.38-29.76-12.33l-57.17-57.17c-8.3-8.3-12.87-19.35-12.87-31.11s4.57-22.81 12.87-31.11c8.31-8.31 19.36-12.89 31.11-12.89s22.8 4.58 31.11 12.89l24.71 24.7 96.47-96.47c8.31-8.31 19.36-12.89 31.11-12.89s22.8 4.58 31.11 12.89c8.3 8.3 12.87 19.35 12.87 31.11s-4.57 22.81-12.87 31.11z" id="Layer_2" fill="#01234e" class="fill-333333"></path></svg>