<?xml version="1.0" ?><svg xmlns="http://www.w3.org/2000/svg" xmlns:xlink="http://www.w3.org/1999/xlink" version="1.1" viewBox="0 0 64 64" style="enable-background:new 0 0 64 64;" xml:space="preserve"><g id="Grid"/><g id="Object"><g><path d="M57.58,6c-0.25-0.05-0.5-0.08-0.77-0.08H45.57V3.26C45.57,2.57,45,2,44.3,2s-1.26,0.57-1.26,1.26v2.66H20.96V3.26    c0-0.7-0.57-1.26-1.26-1.26c-0.7,0-1.26,0.57-1.26,1.26v2.66H7.19c-0.52,0-1.02,0.11-1.48,0.3C4.35,6.8,3.39,8.15,3.39,9.72v44.03    c0,2.09,1.7,3.79,3.79,3.79h12.55C23.06,60.32,27.33,62,32,62c4.66,0,8.94-1.68,12.27-4.46h12.55c2.09,0,3.79-1.7,3.79-3.79V9.72    C60.61,7.89,59.3,6.35,57.58,6z M5.92,9.72c0-0.52,0.32-0.97,0.77-1.16c0.15-0.06,0.32-0.1,0.49-0.1h11.24v3.46    c0,0.7,0.57,1.26,1.26,1.26c0.7,0,1.26-0.57,1.26-1.26V8.45h22.08v3.46c0,0.7,0.57,1.26,1.26,1.26s1.26-0.57,1.26-1.26V8.45h11.25    c0.69,0,1.26,0.57,1.26,1.26v12.42c0,0.7-0.57,1.26-1.26,1.26H7.19c-0.7,0-1.26-0.57-1.26-1.26V9.72z M5.92,53.75V25.69    c0.4,0.14,0.82,0.23,1.27,0.23h15.85c-6.06,3.22-10.19,9.59-10.19,16.92c0,4.62,1.64,8.86,4.37,12.17H7.18    C6.49,55.01,5.92,54.45,5.92,53.75z M32,59.47c-9.17,0-16.63-7.46-16.63-16.63c0-9.17,7.46-16.63,16.63-16.63    c9.17,0,16.63,7.46,16.63,16.63C48.63,52.01,41.17,59.47,32,59.47z M56.82,55.01H46.78c2.73-3.31,4.37-7.55,4.37-12.17    c0-7.33-4.14-13.7-10.2-16.92h15.85c0.45,0,0.87-0.09,1.27-0.23v28.06C58.08,54.45,57.51,55.01,56.82,55.01z"/><path d="M40.41,35.89L27.99,48.3l-4.41-4.41c-0.52-0.52-1.37-0.52-1.9,0c-0.52,0.52-0.52,1.37,0,1.9l5.35,5.36    c0.25,0.25,0.59,0.39,0.95,0.39c0.36,0,0.7-0.14,0.95-0.39l13.37-13.37c0.52-0.52,0.52-1.37,0-1.9    C41.78,35.36,40.93,35.36,40.41,35.89z"/></g></g></svg>