<svg data-name="Layer 1" viewBox="0 0 100 100" xmlns="http://www.w3.org/2000/svg"><path d="M48 13.65a1.41 1.41 0 0 1-1.26-2.12 1.7 1.7 0 0 1 .94-.68 15.33 15.33 0 0 1 2.88-.7 48.15 48.15 0 0 1 7-.76l9.64-.3v1l-9.64.3a45 45 0 0 0-6.85.75 15 15 0 0 0-2.73.65.87.87 0 0 0-.42.27.37.37 0 0 0 0 .35c.13.37.71.21.88.15a15.11 15.11 0 0 1 2.5-.56 46.33 46.33 0 0 1 6.66-.73l9.4-.34v1l-9.35.29a42.88 42.88 0 0 0-6.51.72 12.56 12.56 0 0 0-2.36.57 2.58 2.58 0 0 1-.78.14Z" fill="#01234e" class="fill-000000"></path><path d="M44 20.9a.49.49 0 0 1-.38-.18L41 17.63a3 3 0 0 1-.68-1.56 5.66 5.66 0 0 1 3.83-6.3l2.83-1a14.68 14.68 0 0 1 2.69-.66 47 47 0 0 1 6.83-.71l10.89-.33a.49.49 0 0 1 .51.48.5.5 0 0 1-.48.52l-10.89.33a45.15 45.15 0 0 0-6.69.74 14.05 14.05 0 0 0-2.54.61l-2.83 1a4.69 4.69 0 0 0-3.17 5.18 2.12 2.12 0 0 0 .43 1.07l2.62 3.12a.51.51 0 0 1-.06.71.49.49 0 0 1-.29.07Z" fill="#01234e" class="fill-000000"></path><path d="M14.91 44.92a2.71 2.71 0 0 1-2-.89l-7.86-8.55a2.27 2.27 0 0 1 .23-3.28l3.55-3.28a17.41 17.41 0 0 1 1.71-1.26l3.22-.92a7.18 7.18 0 0 0 3.4-3.25l2.56-5.07a4.54 4.54 0 0 1 1.35-1.57L35.62 6.37a.53.53 0 0 1 .17-.08A59.33 59.33 0 0 1 50 4.57a60.5 60.5 0 0 1 14.12 1.68l3.4.83a.49.49 0 0 1 .37.54l-.22 2a.5.5 0 0 1-1-.11L66.85 8l-3-.73A59.6 59.6 0 0 0 50 5.57a58.67 58.67 0 0 0-13.88 1.67L21.66 17.66a3.52 3.52 0 0 0-1.05 1.22l-2.56 5.06a8.2 8.2 0 0 1-4 3.74l-3.22.92c-.11.06-.92.69-1.39 1.07L5.93 33a1.26 1.26 0 0 0-.47.91 1.24 1.24 0 0 0 .33 1l7.86 8.55a1.69 1.69 0 0 0 2.36.15l3.78-3.22a2.49 2.49 0 0 0 .8-1.32l.08-.37c.49-2.23 4.32-4.93 5.78-5.53a6.58 6.58 0 0 1 6.2.21L35.71 35a1.36 1.36 0 0 0 1.63-.19l10.38-9.92-4.11-4.16a2.82 2.82 0 0 1-.74-1.31 2.87 2.87 0 0 1 1.53-3.25 30.09 30.09 0 0 1 12.34-2.9l9.53-.16.2-1.75a.5.5 0 0 1 .55-.44.49.49 0 0 1 .44.55l-.24 2.18a.51.51 0 0 1-.49.45l-10 .17a29 29 0 0 0-11.9 2.83 1.85 1.85 0 0 0-1 2.11 1.77 1.77 0 0 0 .47.84l4.47 4.52a.51.51 0 0 1 0 .71L38 35.55a2.39 2.39 0 0 1-2.82.34l-3.05-1.74a5.62 5.62 0 0 0-5.3-.17c-1.37.57-4.82 3-5.21 4.84l-.08.37a3.56 3.56 0 0 1-1.13 1.87l-3.78 3.21a2.71 2.71 0 0 1-1.72.65Z" fill="#01234e" class="fill-000000"></path><path d="M19.52 37.17a.46.46 0 0 1-.33-.13l-.7-.62a38.89 38.89 0 0 1-6-6.67.51.51 0 0 1 .11-.7.5.5 0 0 1 .7.12 38.14 38.14 0 0 0 5.87 6.5l.7.62a.5.5 0 0 1-.33.88ZM36.51 33.41a2.43 2.43 0 0 1-1.51-.53l-1-.8a19.23 19.23 0 0 0-6.37-3.37l-1.56-.48a3.1 3.1 0 0 0-2.92.6l-2.95 2.49a.5.5 0 1 1-.65-.76l2.94-2.49a4.07 4.07 0 0 1 3.86-.8l1.56.49a20.13 20.13 0 0 1 6.69 3.54l1 .8a1.44 1.44 0 0 0 1.9-.1l8.25-7.77a.49.49 0 0 1 .7 0 .5.5 0 0 1 0 .71l-8.24 7.77a2.46 2.46 0 0 1-1.7.7ZM66.77 11.76h-.18l-4.1-1.53a.51.51 0 0 1-.29-.65.5.5 0 0 1 .64-.29L67 10.8a.5.5 0 0 1-.18 1ZM88.46 71.38a.51.51 0 0 1-.45-.29 71.65 71.65 0 0 0-16.19-21.87.5.5 0 0 1 0-.7.5.5 0 0 1 .71 0 72.58 72.58 0 0 1 16.38 22.14.5.5 0 0 1-.23.67.54.54 0 0 1-.22.05ZM69.82 47.22a.45.45 0 0 1-.31-.11l-5-4.07a.5.5 0 0 1-.08-.7.51.51 0 0 1 .71-.08l5 4.07a.52.52 0 0 1 .07.71.5.5 0 0 1-.39.18ZM78.68 95.5a3.22 3.22 0 0 1-1.05-.18 3.1 3.1 0 0 1-2-2.4.5.5 0 1 1 1-.17A2.1 2.1 0 0 0 80.05 94L93.3 82.47a2.24 2.24 0 0 0 .7-2.41l-.67-2.7a.51.51 0 0 1 .37-.6.49.49 0 0 1 .6.37l.65 2.65a3.18 3.18 0 0 1-1 3.44L80.71 94.73a3 3 0 0 1-2.03.77Z" fill="#01234e" class="fill-000000"></path><path d="M78 92.85a3.22 3.22 0 0 1-1-.18 3.1 3.1 0 0 1-2-2.4l-1.44-8.18a16.76 16.76 0 0 0-7.51-11.19l-3.55-2.27a5.48 5.48 0 0 1-2.24-2.82l-1.15-3.26a5.67 5.67 0 0 0-3.27-3.39l-1.42-.56A6 6 0 0 1 51 55.16l-1.27-3.29a9 9 0 0 0-5.83-5.37l-1-.29a10.15 10.15 0 0 1-3.75-2 1.91 1.91 0 0 1-.6-2l.39-1.21a1.17 1.17 0 0 0-.59-1.35l-1.49-.76a1.91 1.91 0 0 1-.5-3l1-1a.5.5 0 1 1 .72.7l-1 1a.92.92 0 0 0 .23 1.41l1.49.76a2.15 2.15 0 0 1 1.1 2.51l-.34 1.23a.89.89 0 0 0 .28.93 9.4 9.4 0 0 0 3.39 1.84l1 .28a10 10 0 0 1 6.47 6l1.27 3.29a5.07 5.07 0 0 0 2.87 2.87l1.41.56a6.66 6.66 0 0 1 3.85 4l1.15 3.26A4.55 4.55 0 0 0 63 67.79l3.56 2.27a17.75 17.75 0 0 1 7.94 11.85l1.44 8.19a2.1 2.1 0 0 0 3.46 1.23l13.25-11.51a2.24 2.24 0 0 0 .66-2.41 71.94 71.94 0 0 0-22.84-32.82l-11-9a6.92 6.92 0 0 1-2.36-3.72A2.8 2.8 0 0 0 55.46 30l-2.74-1.17a11.51 11.51 0 0 1-4-2.83l-.69-.76a.51.51 0 0 1 .75-.68l.69.77a10.44 10.44 0 0 0 3.61 2.58l2.74 1.17a3.81 3.81 0 0 1 2.18 2.6 5.91 5.91 0 0 0 2 3.18l11 9a72.78 72.78 0 0 1 23.25 33.22 3.21 3.21 0 0 1-.94 3.49L80.06 92.08a3 3 0 0 1-2.06.77Z" fill="#01234e" class="fill-000000"></path><path d="M85.27 83.34a.48.48 0 0 1-.36-.16.49.49 0 0 1 0-.7 1.85 1.85 0 0 0 .51-1.79 1.91 1.91 0 0 0-3.08-1l-2 1.68a.5.5 0 0 1-.64-.77l2-1.67a2.92 2.92 0 0 1 4.1.36 2.78 2.78 0 0 1 .6 1.17 2.86 2.86 0 0 1-.79 2.75.52.52 0 0 1-.34.13Z" fill="#01234e" class="fill-000000"></path><path d="M81.67 85.76h-.23a2.48 2.48 0 0 1-1.71-.89l-.49-.58a2.52 2.52 0 0 1 .31-3.56L84 77a2.52 2.52 0 0 1 3.56.31l.49.58a2.53 2.53 0 0 1-.31 3.56l-4.48 3.76a2.49 2.49 0 0 1-1.59.55Zm4-8.39a1.49 1.49 0 0 0-1 .36l-4.48 3.76a1.53 1.53 0 0 0-.19 2.15l.49.58a1.53 1.53 0 0 0 2.15.19l4.48-3.77a1.53 1.53 0 0 0 .19-2.15l-.48-.58a1.54 1.54 0 0 0-1.18-.54ZM39.42 41.62h-.05a.51.51 0 0 1-.45-.55l.18-1.88A5.18 5.18 0 0 1 40.64 36L49 27.8a.5.5 0 1 1 .7.71l-8.34 8.16a4.22 4.22 0 0 0-1.24 2.62l-.18 1.88a.5.5 0 0 1-.52.45ZM76.09 93.34a.5.5 0 0 1-.48-.38l-.55-2.2a.5.5 0 0 1 1-.24l.54 2.2a.5.5 0 0 1-.36.6Z" fill="#01234e" class="fill-000000"></path></svg>