<svg xmlns="http://www.w3.org/2000/svg" version="1.0" viewBox="0 0 48 48" xml:space="preserve"><path d="m10.343 22.515 9.671-9.671a3.003 3.003 0 0 0 0-4.243L18.6 7.187a3.003 3.003 0 0 0-4.243 0l-9.671 9.671a3.003 3.003 0 0 0 0 4.243L6.1 22.515a2.99 2.99 0 0 0 2.122.877 2.99 2.99 0 0 0 2.121-.877zm-2.828-1.414-1.414-1.414a1.002 1.002 0 0 1 0-1.415l9.671-9.671a1.003 1.003 0 0 1 1.415 0l1.414 1.414c.39.39.39 1.024 0 1.415L8.93 21.101a1.005 1.005 0 0 1-1.415 0zm30.442 9.128a2.99 2.99 0 0 1 .893 2.135 2.982 2.982 0 0 1-2.846 2.985 2.978 2.978 0 0 1-2.983 2.843c-.224 0-.443-.03-.657-.078a2.97 2.97 0 0 1-.757 1.321 2.993 2.993 0 0 1-2.121.876 2.99 2.99 0 0 1-.658-.08 2.972 2.972 0 0 1-.755 1.325 2.998 2.998 0 0 1-2.123.877 2.99 2.99 0 0 1-2.121-.877.999.999 0 1 1 1.414-1.414 1.001 1.001 0 0 0 1.414-1.415l-1.413-1.414a.999.999 0 1 1 1.414-1.414l1.414 1.414.707.707a.999.999 0 1 0 1.414-1.414l-2.121-2.121-.778-.778a.999.999 0 1 1 1.414-1.414l.778.778 2.121 2.121.707.707a1.021 1.021 0 0 0 1.413 0 1 1 0 0 0 .001-1.414L30.9 31.657l-1.778-1.778a.999.999 0 1 1 1.414-1.414l1.778 1.778 2.828 2.828a1.001 1.001 0 0 0 1.415-1.413l-8.25-7.938a1 1 0 1 1 1.387-1.441l8.263 7.95zm-16.862 3.495a3.02 3.02 0 0 0 .077-.653 2.98 2.98 0 0 0-.878-2.121 2.967 2.967 0 0 0-1.351-.765c.188-.822.052-1.697-.448-2.391a3.008 3.008 0 0 0-2.2-1.249c-.034-.003-.068.005-.102.003a2.88 2.88 0 0 0-.526-1.583 3 3 0 0 0-4.565-.38l-2.121 2.121a2.978 2.978 0 0 0-.879 2.121 2.982 2.982 0 0 0 2.844 2.985c.037.715.317 1.42.862 1.965a2.978 2.978 0 0 0 1.966.862c.037.715.317 1.421.862 1.966a2.977 2.977 0 0 0 1.966.864c.038.742.334 1.436.863 1.964a2.99 2.99 0 0 0 2.122.877 2.99 2.99 0 0 0 2.121-.877l.632-.631c1.071-1.072 1.243-2.766.398-3.938a3.024 3.024 0 0 0-1.643-1.14zm-10.994-4.896c0-.267.104-.518.293-.707L12.515 26a1.001 1.001 0 0 1 1.529.135c.274.379.19.974-.188 1.354l-2.048 2.047a1.02 1.02 0 0 1-1.414-.001.991.991 0 0 1-.293-.707zm3.121 2.121 2.046-2.045.005-.006.07-.07a1.001 1.001 0 0 1 1.529.134c.274.381.191.977-.189 1.356l-2.045 2.046a1 1 0 0 1-1.416-1.415zm2.828 2.829 1.414-1.414a1.003 1.003 0 0 1 1.415 0 .989.989 0 0 1 .292.707.995.995 0 0 1-.292.707l-1.415 1.414a1.021 1.021 0 0 1-1.414 0 1.003 1.003 0 0 1 0-1.414zm4.874 3.612-.631.631a1.027 1.027 0 0 1-1.415 0 .989.989 0 0 1-.292-.707c0-.267.104-.519.292-.707l.708-.707a1 1 0 0 1 1.527.134c.274.38.191.976-.189 1.356zm22.389-20.532-9.171-9.171c-1.132-1.133-3.109-1.135-4.243 0l-1.414 1.414a2.991 2.991 0 0 0-.747 2.95H24.87a2.98 2.98 0 0 0-2.106.864l-4.95 4.88a3.094 3.094 0 0 0-.928 2.207 3.09 3.09 0 0 0 .912 2.212c.607.607 1.404.911 2.201.911s1.594-.304 2.201-.911l1.92-1.92a.996.996 0 0 1 .709-.294H29a1 1 0 1 0 0-2h-4.171c-.801 0-1.555.312-2.122.879l-1.92 1.92a1.114 1.114 0 1 1-1.568-1.582l4.95-4.88a.99.99 0 0 1 .701-.288h4.322l7.812 7.812-.974 3.896A.998.998 0 0 0 37.001 27a1 1 0 0 0 .969-.758l.761-3.045a2.98 2.98 0 0 0 1.047.196c.801 0 1.555-.312 2.121-.879l1.414-1.414a3.002 3.002 0 0 0 0-4.242zm-1.414 2.829-1.414 1.414a1.023 1.023 0 0 1-1.414 0l-8.757-8.757-.001-.001-.413-.413a1.002 1.002 0 0 1 0-1.415l1.414-1.414a.993.993 0 0 1 .707-.293c.268 0 .518.104.707.293l9.172 9.171c.389.39.389 1.024-.001 1.415z" fill="#01234e" class="fill-000000"></path></svg>