<svg viewBox="0 0 512 512" xml:space="preserve" xmlns="http://www.w3.org/2000/svg"><path d="M193.365 227.126c0 21.905-17.778 39.683-39.703 39.683-21.92 0-39.698-17.777-39.698-39.683 0-21.933 17.777-39.708 39.698-39.708 21.925 0 39.703 17.776 39.703 39.708zM130.71 280.614l22.951 25.036 26.756-26.756s49.014 1.72 97.164-32.625c0 0 18.474-12.6 27.456 7.08 0 0 7.931 23.135-19.858 33.313 0 0-61.437 35.725-81.113 36.93v61.451H84.97V323.43s1.031-37.975 45.74-42.816z" fill="#01234e" class="fill-000000"></path><path d="m188.53 183.798-15.702-8.979v-42.632s2.921-11.902 13.622-12.25h233.357s13.114 1.728 12.763 13.982v175.529s-1.201 11.383-13.105 10.524c-11.907-.863-157.93 0-157.93 0l27.439-13.808H416.18v-171.04H188.702l-.172 48.674z" fill="#01234e" class="fill-000000"></path><path d="m241.519 242.303-7.935-13.285 45.547-27.791s7.083-7.588 13.126 0l28.827 22.267 37.102-31.583-10.357-9.493 33.657-3.632-1.892 33.659-10.539-10.524-42.97 35.902s-5.18 5.87-12.085-1.395L285.18 214l-43.661 28.303z" fill="#01234e" class="fill-000000"></path></svg>