<svg viewBox="0 0 64 64" xmlns="http://www.w3.org/2000/svg"><path d="M33.982 57.57H17.946a1.75 1.75 0 1 0 0 3.5h16.036a1.75 1.75 0 0 0 0-3.5ZM47.083 24.917l-.265-1.41-1.183.81a3.072 3.072 0 0 1-3.907-.363l-1.331-1.331a3.072 3.072 0 0 1-.363-3.906l.81-1.184-1.41-.265a3.073 3.073 0 0 1-2.505-3.018v-1.883a3.073 3.073 0 0 1 2.505-3.018l1.41-.265-.81-1.184a3.048 3.048 0 0 1-.526-1.678 23.143 23.143 0 0 0-16.204-4.179A23.34 23.34 0 0 0 13.018 44.66a7.189 7.189 0 0 1 3.282 5.944v1.91a1.35 1.35 0 0 0 1.35 1.35h7.071v-17.94h-2.709a5.913 5.913 0 0 1-1.35-11.67v-2.354a1.35 1.35 0 1 1 2.7 0v3.548a1.35 1.35 0 0 1-1.35 1.35 3.213 3.213 0 1 0 0 6.426h7.904a3.213 3.213 0 1 0 0-6.426 1.35 1.35 0 0 1-1.35-1.35v-3.548a1.35 1.35 0 1 1 2.7 0v2.353a5.913 5.913 0 0 1-1.35 11.67H27.42v17.94h6.746a1.35 1.35 0 0 0 1.35-1.35V50.52a6.908 6.908 0 0 1 3.217-5.748A23.264 23.264 0 0 0 49.21 27.28a3.065 3.065 0 0 1-2.127-2.363Z" fill="#01234e" class="fill-000000"></path><path d="m62.227 11.61-2.18-.41a1.185 1.185 0 0 1-.905-.762 8.54 8.54 0 0 0-.343-.83 1.186 1.186 0 0 1 .101-1.176l1.252-1.83a.771.771 0 0 0-.091-.981L58.73 4.29a.771.771 0 0 0-.981-.091L55.92 5.45a1.187 1.187 0 0 1-1.178.1 8.478 8.478 0 0 0-.83-.342 1.187 1.187 0 0 1-.761-.904l-.41-2.181a.771.771 0 0 0-.758-.63h-1.881a.771.771 0 0 0-.759.63l-.409 2.18a1.186 1.186 0 0 1-.762.905 8.544 8.544 0 0 0-.83.343 1.186 1.186 0 0 1-1.176-.101l-1.83-1.253a.771.771 0 0 0-.982.092l-1.33 1.33a.771.771 0 0 0-.092.981l1.253 1.83a1.186 1.186 0 0 1 .1 1.177 8.615 8.615 0 0 0-.342.83 1.185 1.185 0 0 1-.904.761l-2.181.41a.771.771 0 0 0-.63.758v1.883a.772.772 0 0 0 .63.758l2.18.41a1.186 1.186 0 0 1 .905.762 8.573 8.573 0 0 0 .342.829 1.186 1.186 0 0 1-.1 1.177l-1.253 1.83a.771.771 0 0 0 .091.981l1.331 1.331a.771.771 0 0 0 .981.091l1.83-1.252a1.186 1.186 0 0 1 1.178-.101 8.503 8.503 0 0 0 .83.342 1.186 1.186 0 0 1 .761.905l.41 2.18a.771.771 0 0 0 .758.63h1.881a.772.772 0 0 0 .759-.63l.409-2.18a1.187 1.187 0 0 1 .762-.905 8.503 8.503 0 0 0 .829-.342 1.186 1.186 0 0 1 1.177.1l1.831 1.253a.771.771 0 0 0 .981-.092l1.33-1.33a.771.771 0 0 0 .092-.981l-1.253-1.83a1.186 1.186 0 0 1-.101-1.178 8.507 8.507 0 0 0 .342-.829 1.185 1.185 0 0 1 .905-.762l2.18-.41a.771.771 0 0 0 .63-.758v-1.882a.771.771 0 0 0-.629-.758Zm-11.184 5.673a3.975 3.975 0 1 1 3.974-3.975 3.975 3.975 0 0 1-3.975 3.975Z" fill="#01234e" class="fill-000000"></path></svg>