<svg data-name="Layer 1" viewBox="0 0 512 512" xmlns="http://www.w3.org/2000/svg"><path d="M151.39 380.62h-31.68a37 37 0 0 0-37 37v37.9h105.73v-37.9a37 37 0 0 0-37.05-37ZM171.8 337.73a36.36 36.36 0 1 0-39.11 33.39 36.35 36.35 0 0 0 39.11-33.39ZM271.84 380.62h-31.68a37 37 0 0 0-37 37v37.9h105.73v-37.9a37 37 0 0 0-37.05-37Z" fill="#01234e" class="fill-000000"></path><circle cx="256" cy="334.87" r="36.36" transform="rotate(-28.23 256.065 334.933)" fill="#01234e" class="fill-000000"></circle><path d="M392.29 380.62h-31.68a37 37 0 0 0-37.05 37v37.9h105.77v-37.9a37 37 0 0 0-37.04-37ZM412.69 337.73a36.36 36.36 0 1 0-39.1 33.39 36.35 36.35 0 0 0 39.1-33.39ZM410.49 56.44h-309A20.17 20.17 0 0 0 81.35 76.6v164.26A20.17 20.17 0 0 0 101.51 261h309a20.17 20.17 0 0 0 20.16-20.16V76.6a20.17 20.17 0 0 0-20.18-20.16ZM367.92 163a12.29 12.29 0 1 1-24.58 0v-35.64L265.2 205.5a12.29 12.29 0 0 1-17.38 0l-29.89-29.89-52.86 52.86a12.29 12.29 0 0 1-17.38-17.39l61.55-61.54a12.27 12.27 0 0 1 17.38 0l29.89 29.88L326 110h-35.7a12.3 12.3 0 0 1 0-24.59h65.33a12.39 12.39 0 0 1 4.67.93 12.34 12.34 0 0 1 7.62 11.37Z" fill="#01234e" class="fill-000000"></path></svg>