<svg viewBox="0 0 800 800" xml:space="preserve" xmlns="http://www.w3.org/2000/svg"><g fill="#008000" class="fill-4d4d4d"><path d="M525.4 589.907H213.663c-9.932 0-17.985 8.044-17.985 17.985 0 9.923 8.053 17.984 17.985 17.984H525.4c9.94 0 17.985-8.062 17.985-17.984.001-9.941-8.044-17.985-17.985-17.985zM647.063 282.877c3.319-41.837 4.751-82.286 5.005-90.189a17.953 17.953 0 0 0-5.049-13.085 17.928 17.928 0 0 0-12.918-5.48H82.165a17.931 17.931 0 0 0-12.927 5.48 17.962 17.962 0 0 0-5.059 13.085c.492 15 5.199 147.569 19.091 183.821 26.978 70.431 93.536 188.581 236.091 188.581h77.543c96.564 0 158.213-54.22 196.361-111.091 14.376 9.133 31.378 14.508 49.635 14.508 51.242 0 92.93-41.679 92.93-92.929 0-49.828-39.466-90.506-88.767-92.701zm-41.292 49.617c-1.914 13.963-4.049 25.081-6.376 31.141a399.344 399.344 0 0 1-11.399 26.854c-6.041 12.944-12.996 25.941-20.997 38.517-34.328 53.938-87.756 100.113-170.094 100.113h-77.543c-114.972 0-173.582-89.996-202.509-165.484-7.886-20.585-13.604-98.445-16-153.542h514.562c-1.055 24.062-2.74 52.445-4.953 78.527-1.371 16.053-2.943 31.141-4.691 43.874zM642.9 432.536c-11.504 0-22.218-3.46-31.176-9.36 8.853-16.58 15.869-32.582 21.271-46.667 4.461-11.68 7.974-33.336 10.714-57.837 31.035.439 56.15 25.784 56.15 56.906 0 31.403-25.554 56.958-56.959 56.958z"></path></g></svg>