<?xml version="1.0" ?><svg viewBox="0 0 64 64" xmlns="http://www.w3.org/2000/svg"><g id="a"/><g id="b"/><g id="c"/><g id="d"/><g id="e"/><g id="f"/><g id="g"/><g id="h"/><g id="i"/><g id="j"/><g id="k"/><g id="l"/><g id="m"/><g id="n"/><g id="o"/><g id="p"/><g id="q"/><g id="r"/><g id="s"/><g id="t"/><g id="u"/><g id="v"/><g id="w"/><g id="x"/><g id="y"/><g id="a`"/><g id="aa"/><g id="ab"/><g id="ac"/><g id="ad"/><g id="ae"/><g id="af"/><g id="ag"/><g id="ah"/><g id="ai"/><g id="aj"/><g id="ak"/><g id="al"/><g id="am"/><g id="an"/><g id="ao"/><g id="ap"/><g id="aq"/><g id="ar"/><g id="as"><path d="M58.38,42.7c-1.12-.59-2.47-.46-3.62,.34-1.45,1.01-3.69,.92-5.31-.21-2.36-1.64-5.53-1.63-7.89,0-1.7,1.18-3.91,1.18-5.61,0-.56-.39-1.17-.65-1.79-.85v-3.91c.98-.4,1.68-1.35,1.68-2.48v-.69h4.71c1.6,0,2.9-1.3,2.9-2.9s-1.3-2.9-2.9-2.9h-7.54v-2.65c1.57-.04,2.83-1.31,2.83-2.89s-1.3-2.9-2.9-2.9H6.9c-1.6,0-2.9,1.3-2.9,2.9,0,1.25,.8,2.29,1.9,2.7v3.04c-1.11,.41-1.9,1.45-1.9,2.7v23.8c0,2.32,1.88,4.2,4.2,4.2H55.8c2.31,0,4.2-1.88,4.2-4.2v-10.39c0-1.16-.61-2.18-1.62-2.71Zm-43.89-7.8v.69c0,1.12,.7,2.08,1.69,2.48v3.96c-.56,.2-1.1,.45-1.62,.8-1.42,.99-3.32,1.13-4.75,.47v-5.23c.98-.4,1.69-1.35,1.69-2.48v-.69h2.99Zm7.18,0v.69c0,.38-.31,.68-.69,.68h-3.81c-.38,0-.69-.31-.69-.68v-.69h5.18Zm4.99,0v.69c0,1.12,.7,2.08,1.69,2.48v4.59c-.09,.06-.19,.1-.28,.17-1.7,1.18-3.91,1.18-5.61,0-.15-.1-.31-.18-.47-.27v-4.49c.99-.4,1.69-1.35,1.69-2.48v-.69h2.99Zm5.5,3.37v7.83c-.61-.01-1.21,.08-1.81,.22v-8.06h1.81Zm-26.15,0h1.81v8.63c-.62-.13-1.23-.09-1.81,.13v-8.76Zm3.81,7.2c.59,.17,1.21,.26,1.83,.26,1.41,0,2.85-.42,4.05-1.26,.15-.1,.32-.13,.48-.21v2.25c-.56,.2-1.12,.43-1.61,.77-1.44,1-3.32,1.13-4.75,.46v-2.28Zm8.36-7.2h1.81v8.03c-.6-.13-1.2-.2-1.81-.17v-7.86Zm3.81,6.53c1.02,.55,2.13,.9,3.27,.9,1.07,0,2.11-.32,3.09-.81v2.27c-.09,.06-.2,.08-.28,.14-1.7,1.18-3.91,1.18-5.61,0-.14-.1-.31-.14-.46-.22v-2.27Zm-12.48-9.21c0,.38-.3,.68-.69,.68h-2.81v-1.37h3.49v.69Zm-3.49,14.28c0-.41,.2-.75,.55-.94,.45-.23,1.03-.16,1.56,.21,2.15,1.49,5.27,1.4,7.59-.21,1.66-1.14,3.96-1.14,5.61,0,2.36,1.64,5.53,1.64,7.89,0,1.66-1.14,3.96-1.14,5.61,0,2.36,1.64,5.53,1.64,7.89,0,1.7-1.18,3.91-1.18,5.61,0,2.32,1.61,5.44,1.7,7.59,.21,.53-.37,1.11-.44,1.56-.21,.35,.18,.55,.53,.55,.94v1.62c-1.04-.39-2.22-.24-3.25,.47-1.45,1-3.69,.92-5.31-.21-2.36-1.64-5.53-1.63-7.89,0-1.7,1.18-3.91,1.18-5.61,0-2.35-1.62-5.53-1.62-7.89,0-1.7,1.18-3.91,1.18-5.61,0-2.33-1.6-5.55-1.61-7.89,0-1.63,1.13-3.86,1.21-5.31,.21-1.03-.71-2.21-.86-3.25-.47v-1.62Zm28.81-5.4c2.36,1.64,5.53,1.64,7.89,0,1.7-1.18,3.91-1.18,5.61,0,2.32,1.61,5.44,1.7,7.59,.21,.53-.37,1.11-.44,1.56-.21,.35,.18,.55,.53,.55,.94v1.62c-1.04-.39-2.22-.24-3.25,.47-1.45,1.01-3.69,.92-5.31-.21-2.36-1.64-5.53-1.63-7.89,0-1.7,1.18-3.91,1.18-5.61,0-.55-.38-1.16-.66-1.79-.86v-2.32c.22,.11,.45,.22,.66,.36Zm-.97-8.88c0,.38-.31,.68-.69,.68h-3.81c-.38,0-.69-.31-.69-.68v-.69h5.18v.69Zm7.61-3.59c0,.5-.4,.9-.9,.9H6v-.9c0-.5,.41-.9,.9-.9H40.54c.5,0,.9,.4,.9,.9Zm-31.73-5.54v2.64h-1.81v-2.64h1.81Zm3.29,0v2.64h-1.29v-2.64h1.29Zm3.81,0v2.64h-1.81v-2.64h1.81Zm3.29,0v2.64h-1.29v-2.64h1.29Zm3.81,0v2.64h-1.81v-2.64h1.81Zm3.29,0v2.64h-1.29v-2.64h1.29Zm2,2.64v-2.64h1.81v2.64h-1.81ZM6.9,22.66h26.02c.5,0,.9,.4,.9,.9s-.4,.9-.9,.9H6.9c-.51,0-.9-.4-.9-.9s.41-.9,.9-.9ZM58,55.8c0,1.21-.99,2.2-2.2,2.2H8.2c-1.21,0-2.2-.99-2.2-2.2v-1.47c0-.41,.2-.75,.55-.94,.45-.23,1.03-.16,1.56,.21,2.15,1.49,5.27,1.4,7.59-.21,1.66-1.14,3.96-1.14,5.61,0,2.36,1.64,5.53,1.64,7.89,0,1.68-1.16,3.94-1.15,5.61,0,2.36,1.64,5.53,1.64,7.89,0,1.7-1.18,3.91-1.18,5.61,0,2.32,1.61,5.44,1.7,7.59,.21,.53-.37,1.11-.44,1.56-.21,.35,.18,.55,.53,.55,.94v1.47Z"/><path d="M14.65,11.29c0-1.85-1.51-3.36-3.36-3.36s-3.36,1.51-3.36,3.36,1.51,3.36,3.36,3.36,3.36-1.51,3.36-3.36Zm-3.36,1.36c-.75,0-1.36-.61-1.36-1.36s.61-1.36,1.36-1.36,1.36,.61,1.36,1.36-.61,1.36-1.36,1.36Z"/><path d="M12.29,6.37v-1.37c0-.55-.45-1-1-1s-1,.45-1,1v1.37c0,.55,.45,1,1,1s1-.45,1-1Z"/><path d="M10.29,16.22v1.37c0,.55,.45,1,1,1s1-.45,1-1v-1.37c0-.55-.45-1-1-1s-1,.45-1,1Z"/><path d="M18.59,11.29c0-.55-.45-1-1-1h-1.37c-.55,0-1,.45-1,1s.45,1,1,1h1.37c.55,0,1-.45,1-1Z"/><path d="M5,12.29h1.37c.55,0,1-.45,1-1s-.45-1-1-1h-1.37c-.55,0-1,.45-1,1s.45,1,1,1Z"/><path d="M15.49,8.52l.97-.97c.39-.39,.39-1.02,0-1.41-.39-.39-1.02-.39-1.41,0l-.97,.97c-.39,.39-.39,1.02,0,1.41,.19,.19,.45,.29,.71,.29s.51-.1,.71-.29Z"/><path d="M6.14,15.04c-.39,.39-.39,1.02,0,1.41,.2,.19,.45,.29,.71,.29s.51-.1,.71-.29l.97-.97c.39-.39,.39-1.02,0-1.41-.39-.39-1.02-.39-1.41,0l-.97,.97Z"/><path d="M15.04,16.46c.2,.2,.45,.29,.71,.29s.51-.1,.71-.29c.39-.39,.39-1.02,0-1.41l-.97-.97c-.39-.39-1.02-.39-1.41,0-.39,.39-.39,1.02,0,1.41l.97,.97Z"/><path d="M8.52,7.1l-.97-.97c-.39-.39-1.02-.39-1.41,0-.39,.39-.39,1.02,0,1.41l.97,.97c.2,.2,.45,.29,.71,.29s.51-.1,.71-.29c.39-.39,.39-1.02,0-1.41Z"/><path d="M57.1,9.58h-10.35c-1.6,0-2.9,1.3-2.9,2.9s1.3,2.9,2.9,2.9h.81c.19,0,.34,.15,.34,.34s-.15,.34-.34,.34h-7.98c-1.6,0-2.9,1.3-2.9,2.9s1.3,2.9,2.9,2.9h16.24c1.6,0,2.9-1.3,2.9-2.9s-1.3-2.9-2.9-2.9h-.6c-.19,0-.34-.15-.34-.34s.15-.34,.33-.34h1.89c1.6,0,2.9-1.3,2.9-2.9s-1.3-2.9-2.9-2.9Zm0,3.8h-1.9c-1.3,.02-2.31,1.05-2.31,2.34s1.02,2.32,2.33,2.34h.61c.51,0,.9,.4,.9,.9s-.4,.9-.9,.9h-16.24c-.5,0-.9-.4-.9-.9s.4-.9,.9-.9h7.98c1.29,0,2.34-1.05,2.34-2.34s-1.05-2.34-2.34-2.34h-.81c-.51,0-.9-.4-.9-.9s.4-.9,.9-.9h10.35c.5,0,.9,.4,.9,.9s-.4,.9-.9,.9Z"/><path d="M26.91,9.33c-1.67,0-3.02,1.35-3.02,3.02s1.35,3.02,3.02,3.02h4.87c1.67,0,3.02-1.35,3.02-3.02s-1.35-3.02-3.02-3.02h-4.87Zm5.89,3.02c0,.56-.46,1.02-1.02,1.02h-4.87c-.56,0-1.02-.46-1.02-1.02s.45-1.02,1.02-1.02h4.87c.57,0,1.02,.45,1.02,1.02Z"/><path d="M48.08,29.99h4.87c1.67,0,3.02-1.35,3.02-3.02s-1.35-3.02-3.02-3.02h-4.87c-1.67,0-3.02,1.35-3.02,3.02s1.35,3.02,3.02,3.02Zm0-4.04h4.87c.56,0,1.02,.46,1.02,1.02s-.46,1.02-1.02,1.02h-4.87c-.56,0-1.02-.46-1.02-1.02s.45-1.02,1.02-1.02Z"/></g><g id="at"/><g id="au"/><g id="av"/><g id="aw"/><g id="ax"/></svg>