<svg viewBox="0 0 30 30" xml:space="preserve" xmlns="http://www.w3.org/2000/svg" enable-background="new 0 0 30 30"><path d="m23 19-3.328-3.232A2.717 2.717 0 0 1 19 13.98V12c0-4.945 3.157-9.535 3.157-9.535l.843.534V19z" fill="#008000" class="fill-000000"></path><circle cx="23" cy="3" r="1" fill="#008000" class="fill-000000"></circle><path d="M24 3h-2l-1 10v13.5a1.5 1.5 0 0 0 3 0V3zM13.087 2.445A.549.549 0 0 0 12 2.548v5.807a.645.645 0 0 1-1.286.071l-.66-5.939A.548.548 0 0 0 9.509 2h-.018c-.28 0-.514.21-.545.488l-.66 5.939A.644.644 0 0 1 7 8.355V2.548a.548.548 0 0 0-1.087-.103C5.671 3.713 5 7.362 5 9c0 4 3 5 3 5v12.5a1.5 1.5 0 0 0 3 0V14s3-1 3-5c0-1.638-.671-5.287-.913-6.555z" fill="#008000" class="fill-000000"></path></svg>