<svg viewBox="0 0 512 512" xml:space="preserve" xmlns="http://www.w3.org/2000/svg" enable-background="new 0 0 512 512"><path d="M336.4 292.9c-21.2 1.5-49.7 2.4-80.2 2.4s-58.9-.8-80.2-2.4c-17.3-1.2-27.3-2.7-33.3-4.5.6 25.8 1.8 51.7 3.5 78 0 4.7 1.8 9.3 5.3 12.9 1.2 1.2 2.5 1.8 3.9 2.1v25.4c0 5.3 4.3 9.6 9.6 9.6h27c5.3 0 9.6-4.3 9.6-9.6v-25.4H310v25.4c0 5.3 4.3 9.6 9.6 9.6h27c5.3 0 9.6-4.3 9.6-9.6v-25.4c1.4-.3 2.7-.9 3.9-2.1 3.5-3.6 5.3-8.2 5.3-12.9 1.8-26.3 2.9-52.2 3.5-77.9-5.6 1.7-15.6 3.2-32.5 4.4zm-122.7 52.6c-.1 5.4-4.2 9.3-9.1 9-10.4-.5-15.3-.9-26.2-1.7-5.1-.4-10.3-3.8-10.9-9.3-.3-2.2-.4-3.4-.6-5.8-.4-5.8 4.2-9.9 9.6-9.6 11.2.8 16.8 1.1 28.1 1.6 5.3.2 9.4 4.7 9.3 10.2-.1 2.3-.2 3.4-.2 5.6zm131.7-3.1c-.3 5.3-5.7 10-10.9 10.4-11 .8-16.1 1.1-26.8 1.7-5.1.3-9.2-3.9-9.3-9.2 0-2.2-.1-3.3-.1-5.5-.2-5.3 3.9-9.8 9.2-10 11.2-.5 16.9-.8 28.1-1.6 5.3-.4 10 3.6 10 8.9 0 2.1 0 3.2-.2 5.3zM398.8 135.7h-7.1c-5 0-9.1 3.9-9.6 8.8h-15.5c-.3-5.5-.6-11-1-16.6v-1.6c-41.4-41.1-178.1-41.1-219.4 0v1.6c-.4 5.6-.7 11.1-1 16.6h-15.5c-.4-4.9-4.5-8.8-9.6-8.8H113c-5.3 0-9.6 4.3-9.6 9.6v50.8c0 5.3 4.3 9.6 9.6 9.6h7.1c5.3 0 9.6-4.3 9.6-9.6v-44.4h15c-2.3 41.9-3 83-2.3 124.4.6.4 1.2.9 1.5 1.5 18.2 9.2 206 9.2 224.2 0 .3-.5.7-.9 1.2-1.3.7-41.4-.1-82.6-2.3-124.7h15V196c0 5.3 4.3 9.6 9.6 9.6h7.1c5.3 0 9.6-4.3 9.6-9.6v-50.8c.1-5.1-4.2-9.5-9.5-9.5zM251.6 262l-71 1.2 43.9-48.1v26c0 2 1.6 3.6 3.6 3.6s3.6-1.6 3.6-3.6v-70.3c0-2-1.6-3.6-3.6-3.6s-3.6 1.6-3.6 3.6v38.9l-55.3 53.6-14.9.2V145.4c0-5.3 4.3-9.6 9.6-9.6h87.7V262zm108 2-8.5-1.8c-4.8-4.5-11.9-7.7-20-9.8l-44-42.7v-38.9c0-2-1.6-3.6-3.6-3.6s-3.6 1.6-3.6 3.6v70.3c0 2 1.6 3.6 3.6 3.6s3.6-1.6 3.6-3.6v-26l32.1 35.2c-19.5-2.1-41.2 1.6-52 11.5l-4.9.1V135.7H350c5.3 0 9.6 4.3 9.6 9.6V264z" fill="#008000" class="fill-000000"></path></svg>