<?xml version="1.0" ?><!DOCTYPE svg  PUBLIC '-//W3C//DTD SVG 1.1//EN'  'http://www.w3.org/Graphics/SVG/1.1/DTD/svg11.dtd'><svg enable-background="new 0 0 300 300" height="300px" id="Layer_1" version="1.1" viewBox="0 0 300 300" width="300px" xml:space="preserve" xmlns="http://www.w3.org/2000/svg" xmlns:xlink="http://www.w3.org/1999/xlink"><g><path d="   M206,126V71.657c0-2.003-0.19-2.657-2.194-2.657H96.959C94.956,69,92,69.654,92,71.657V126" fill="none" stroke="#000000" stroke-linecap="round" stroke-linejoin="round" stroke-miterlimit="10" stroke-width="6"/><g><path d="    M195.843,137h-89.92C89.229,137,74,149.269,74,165.962v43.525c0,2.003,3.32,4.513,5.323,4.513h143.118    c2.004,0,2.559-2.51,2.559-4.513v-43.525C225,149.269,212.535,137,195.843,137z" fill="none" stroke="#000000" stroke-linecap="round" stroke-linejoin="round" stroke-miterlimit="10" stroke-width="6"/><path d="    M225,176.627c0-2.003-1.624-3.627-3.627-3.627H77.627c-2.003,0-3.627,1.624-3.627,3.627v33.746c0,2.003,1.624,3.627,3.627,3.627    h143.746c2.003,0,3.627-1.624,3.627-3.627V176.627z" fill="none" stroke="#000000" stroke-linecap="round" stroke-linejoin="round" stroke-miterlimit="10" stroke-width="6"/><line fill="none" stroke="#000000" stroke-linecap="round" stroke-linejoin="round" stroke-miterlimit="10" stroke-width="6" x1="74" x2="74" y1="195" y2="231"/><line fill="none" stroke="#000000" stroke-linecap="round" stroke-linejoin="round" stroke-miterlimit="10" stroke-width="6" x1="225" x2="225" y1="195" y2="231"/></g><path d="   M168.953,125.908c0-8.987,1.926-18.451,1.926-18.451c0-1.595-1.294-3.046-2.889-3.046c0,0-8.987,1.846-17.813,1.846   c-8.826,0-18.774-1.965-18.774-1.965c-1.597,0-2.89,1.273-2.89,2.869c0,0,1.926,9.128,1.926,18.757" fill="none" stroke="#000000" stroke-linecap="round" stroke-linejoin="round" stroke-miterlimit="10" stroke-width="6"/></g></svg>