<svg xmlns="http://www.w3.org/2000/svg" viewBox="0 0 100 100"><path d="M60.938 975.28c-.66 0-1.808.387-2.344.651l-16.667 8.073c-2.218 1.05-3.026 4.28-1.562 6.25l5.078 6.9-18.62 14.454 8.594 2.734 11.198-3.646c.399-.133.862-.258 1.302-.258.44 0 .862.117 1.302.258l11.198 3.646 5.859-1.953-16.016-23.177 12.63-6.38c2.509-1.254 2.344-3.405 2.084-4.688-.246-1.215-1.746-2.864-4.037-2.864zm7.812 12.5a8.333 8.333 0 1 0 0 16.666 8.333 8.333 0 0 0 0-16.666zm-45.833 29.166c-.444 0-1.01.142-1.302.259l-7.032 2.343v8.594l8.334-2.864 11.198 3.906c.455.15.863.258 1.302.258.439 0 .919-.137 1.302-.258l11.198-3.906 11.198 3.906c.43.141.863.258 1.302.258.439 0 .893-.129 1.302-.258l11.198-3.906 12.5 4.166v-8.594l-11.198-3.645c-.414-.138-.863-.259-1.302-.259-.44 0-.878.121-1.302.259l-11.198 3.645-11.198-3.645c-.44-.146-.863-.259-1.302-.259-.44 0-.903.134-1.302.259l-11.198 3.645-11.198-3.645c-.538-.205-.859-.259-1.302-.259z" style="marker:none" transform="translate(0 -952.362)" color="#000000" fill="#008000" fill-opacity="1" fill-rule="nonzero" stroke="none" stroke-width="2" visibility="visible" display="inline" overflow="visible" enable-background="accumulate" class="fill-000000"></path></svg>